<svg xmlns="http://www.w3.org/2000/svg" xmlns:xlink="http://www.w3.org/1999/xlink" width="500" zoomAndPan="magnify" viewBox="0 0 375 374.999991" height="500" preserveAspectRatio="xMidYMid meet" version="1.0"><defs><g/><clipPath id="29198429b6"><path d="M 4.113281 4.113281 L 370.886719 4.113281 L 370.886719 370.886719 L 4.113281 370.886719 Z M 4.113281 4.113281 " clip-rule="nonzero"/></clipPath><clipPath id="20a697674a"><path d="M 187.5 4.113281 C 86.21875 4.113281 4.113281 86.21875 4.113281 187.5 C 4.113281 288.78125 86.21875 370.886719 187.5 370.886719 C 288.78125 370.886719 370.886719 288.78125 370.886719 187.5 C 370.886719 86.21875 288.78125 4.113281 187.5 4.113281 Z M 187.5 4.113281 " clip-rule="nonzero"/></clipPath><clipPath id="a83f5ea75d"><path d="M 0.113281 0.113281 L 366.886719 0.113281 L 366.886719 366.886719 L 0.113281 366.886719 Z M 0.113281 0.113281 " clip-rule="nonzero"/></clipPath><clipPath id="6eb05b6067"><path d="M 183.5 0.113281 C 82.21875 0.113281 0.113281 82.21875 0.113281 183.5 C 0.113281 284.78125 82.21875 366.886719 183.5 366.886719 C 284.78125 366.886719 366.886719 284.78125 366.886719 183.5 C 366.886719 82.21875 284.78125 0.113281 183.5 0.113281 Z M 183.5 0.113281 " clip-rule="nonzero"/></clipPath><clipPath id="e7c816f113"><rect x="0" width="367" y="0" height="367"/></clipPath><clipPath id="50683c21e4"><path d="M 8.226562 8.226562 L 366.773438 8.226562 L 366.773438 366.773438 L 8.226562 366.773438 Z M 8.226562 8.226562 " clip-rule="nonzero"/></clipPath><clipPath id="38cbae886c"><path d="M 187.5 8.226562 C 88.488281 8.226562 8.226562 88.488281 8.226562 187.5 C 8.226562 286.511719 88.488281 366.773438 187.5 366.773438 C 286.511719 366.773438 366.773438 286.511719 366.773438 187.5 C 366.773438 88.488281 286.511719 8.226562 187.5 8.226562 Z M 187.5 8.226562 " clip-rule="nonzero"/></clipPath><clipPath id="d5a14a889a"><path d="M 0.226562 0.226562 L 358.773438 0.226562 L 358.773438 358.773438 L 0.226562 358.773438 Z M 0.226562 0.226562 " clip-rule="nonzero"/></clipPath><clipPath id="de0813f5e2"><path d="M 179.5 0.226562 C 80.488281 0.226562 0.226562 80.488281 0.226562 179.5 C 0.226562 278.511719 80.488281 358.773438 179.5 358.773438 C 278.511719 358.773438 358.773438 278.511719 358.773438 179.5 C 358.773438 80.488281 278.511719 0.226562 179.5 0.226562 Z M 179.5 0.226562 " clip-rule="nonzero"/></clipPath><clipPath id="e392e6ff4f"><rect x="0" width="359" y="0" height="359"/></clipPath><clipPath id="a901d2dd02"><path d="M 11.367188 11.5625 L 363.238281 11.5625 L 363.238281 363.4375 L 11.367188 363.4375 Z M 11.367188 11.5625 " clip-rule="nonzero"/></clipPath><clipPath id="d1a200426b"><path d="M 187.300781 11.5625 C 90.136719 11.5625 11.367188 90.332031 11.367188 187.5 C 11.367188 284.667969 90.136719 363.4375 187.300781 363.4375 C 284.46875 363.4375 363.238281 284.667969 363.238281 187.5 C 363.238281 90.332031 284.46875 11.5625 187.300781 11.5625 Z M 187.300781 11.5625 " clip-rule="nonzero"/></clipPath><clipPath id="e4f83a2b5b"><path d="M 0.367188 0.5625 L 352.238281 0.5625 L 352.238281 352.4375 L 0.367188 352.4375 Z M 0.367188 0.5625 " clip-rule="nonzero"/></clipPath><clipPath id="1490d72c22"><path d="M 176.300781 0.5625 C 79.136719 0.5625 0.367188 79.332031 0.367188 176.5 C 0.367188 273.667969 79.136719 352.4375 176.300781 352.4375 C 273.46875 352.4375 352.238281 273.667969 352.238281 176.5 C 352.238281 79.332031 273.46875 0.5625 176.300781 0.5625 Z M 176.300781 0.5625 " clip-rule="nonzero"/></clipPath><clipPath id="875a199e55"><rect x="0" width="353" y="0" height="353"/></clipPath><clipPath id="8da88f0299"><path d="M 15.753906 15.753906 L 359.246094 15.753906 L 359.246094 359.246094 L 15.753906 359.246094 Z M 15.753906 15.753906 " clip-rule="nonzero"/></clipPath><clipPath id="9edcd1f89d"><path d="M 187.5 15.753906 C 92.644531 15.753906 15.753906 92.644531 15.753906 187.5 C 15.753906 282.355469 92.644531 359.246094 187.5 359.246094 C 282.355469 359.246094 359.246094 282.355469 359.246094 187.5 C 359.246094 92.644531 282.355469 15.753906 187.5 15.753906 Z M 187.5 15.753906 " clip-rule="nonzero"/></clipPath><clipPath id="af6bfb833e"><path d="M 0.753906 0.753906 L 344.246094 0.753906 L 344.246094 344.246094 L 0.753906 344.246094 Z M 0.753906 0.753906 " clip-rule="nonzero"/></clipPath><clipPath id="c6fa34778d"><path d="M 172.5 0.753906 C 77.644531 0.753906 0.753906 77.644531 0.753906 172.5 C 0.753906 267.355469 77.644531 344.246094 172.5 344.246094 C 267.355469 344.246094 344.246094 267.355469 344.246094 172.5 C 344.246094 77.644531 267.355469 0.753906 172.5 0.753906 Z M 172.5 0.753906 " clip-rule="nonzero"/></clipPath><clipPath id="fa05bc5a19"><rect x="0" width="345" y="0" height="345"/></clipPath><clipPath id="2d83b0e2f8"><path d="M 76 52.269531 L 298 52.269531 L 298 254 L 76 254 Z M 76 52.269531 " clip-rule="nonzero"/></clipPath></defs><g clip-path="url(#29198429b6)"><g clip-path="url(#20a697674a)"><g transform="matrix(1, 0, 0, 1, 4, 4)"><g clip-path="url(#e7c816f113)"><g clip-path="url(#a83f5ea75d)"><g clip-path="url(#6eb05b6067)"><path fill="#00253d" d="M 0.113281 0.113281 L 366.886719 0.113281 L 366.886719 366.886719 L 0.113281 366.886719 Z M 0.113281 0.113281 " fill-opacity="1" fill-rule="nonzero"/></g></g></g></g></g></g><g clip-path="url(#50683c21e4)"><g clip-path="url(#38cbae886c)"><g transform="matrix(1, 0, 0, 1, 8, 8)"><g clip-path="url(#e392e6ff4f)"><g clip-path="url(#d5a14a889a)"><g clip-path="url(#de0813f5e2)"><path fill="#c9e6f8" d="M 0.226562 0.226562 L 358.773438 0.226562 L 358.773438 358.773438 L 0.226562 358.773438 Z M 0.226562 0.226562 " fill-opacity="1" fill-rule="nonzero"/></g></g></g></g></g></g><g clip-path="url(#a901d2dd02)"><g clip-path="url(#d1a200426b)"><g transform="matrix(1, 0, 0, 1, 11, 11)"><g clip-path="url(#875a199e55)"><g clip-path="url(#e4f83a2b5b)"><g clip-path="url(#1490d72c22)"><path fill="#00253d" d="M 0.367188 0.5625 L 352.238281 0.5625 L 352.238281 352.4375 L 0.367188 352.4375 Z M 0.367188 0.5625 " fill-opacity="1" fill-rule="nonzero"/></g></g></g></g></g></g><g clip-path="url(#8da88f0299)"><g clip-path="url(#9edcd1f89d)"><g transform="matrix(1, 0, 0, 1, 15, 15)"><g clip-path="url(#fa05bc5a19)"><g clip-path="url(#af6bfb833e)"><g clip-path="url(#c6fa34778d)"><path fill="#c9e6f8" d="M 0.753906 0.753906 L 344.246094 0.753906 L 344.246094 344.246094 L 0.753906 344.246094 Z M 0.753906 0.753906 " fill-opacity="1" fill-rule="nonzero"/></g></g></g></g></g></g><g clip-path="url(#2d83b0e2f8)"><path fill="#000000" d="M 296.199219 176.054688 C 293.707031 169.339844 288.621094 164.160156 283.125 159.757812 C 281.753906 158.65625 280.355469 157.597656 278.949219 156.542969 C 278.410156 156.136719 277.867188 155.988281 277.371094 156.007812 C 281.460938 152.613281 284.207031 147.769531 285.390625 142.46875 C 287.1875 134.410156 285.007812 126.164062 280.871094 119.171875 C 278.699219 115.507812 276.007812 112.136719 273.089844 109.039062 C 270.132812 105.902344 266.84375 103.101562 263.753906 100.097656 C 260.722656 97.15625 257.910156 93.988281 256.050781 90.164062 C 254.382812 86.734375 253.585938 82.933594 252.683594 79.253906 C 250.851562 71.792969 248.253906 64.246094 241.050781 60.375 C 234.058594 56.617188 225.609375 57.195312 218.023438 58.296875 C 209.128906 59.589844 200.355469 61.453125 191.335938 61.625 C 182.496094 61.796875 173.460938 60.679688 165.417969 56.808594 C 161.492188 54.917969 157.574219 52.292969 153.007812 52.644531 C 149.1875 52.941406 146.222656 55.039062 143.941406 58.007812 C 142.3125 60.125 141.183594 62.597656 140.648438 65.199219 C 140.628906 65.199219 140.609375 65.191406 140.589844 65.191406 C 131.589844 64.226562 124.121094 70.410156 117.058594 75.039062 C 113.171875 77.589844 109.058594 79.832031 104.769531 81.632812 C 100.648438 83.355469 96.3125 84.410156 92.164062 86.035156 C 88.046875 87.648438 84.382812 90.136719 82.34375 94.179688 C 80.488281 97.847656 79.941406 102.128906 80.417969 106.1875 C 81.363281 114.238281 85.523438 121.410156 90.910156 127.324219 C 95.429688 132.289062 100.78125 136.421875 106.308594 140.25 C 105.160156 140.175781 104.011719 140.09375 102.859375 140.03125 C 99.324219 139.839844 95.710938 139.421875 92.171875 139.761719 C 88.75 140.089844 85.5 141.152344 83 143.601562 C 80.863281 145.695312 79.519531 148.589844 78.886719 151.480469 C 77.375 158.4375 79.925781 165.199219 80.089844 172.136719 C 80.265625 179.597656 78.230469 186.855469 77.160156 194.1875 C 76.214844 200.691406 75.898438 207.601562 78.175781 213.886719 C 80.472656 220.214844 85.195312 224.78125 90.574219 228.601562 C 95.921875 232.398438 101.648438 235.769531 107.316406 239.058594 C 113.289062 242.527344 119.511719 245.652344 126.144531 247.652344 C 134.015625 250.027344 142.253906 250.402344 150.40625 249.742188 C 158.984375 249.046875 167.515625 247.664062 176.019531 246.390625 C 176.757812 246.28125 177.425781 245.933594 177.808594 245.367188 C 178.171875 245.527344 178.535156 245.691406 178.902344 245.847656 C 185.296875 248.582031 191.90625 250.6875 198.734375 252.023438 C 205.394531 253.328125 212.226562 253.972656 219.015625 253.714844 C 225.714844 253.464844 232.636719 252.449219 238.949219 250.121094 C 242.234375 248.910156 245.355469 247.253906 247.878906 244.789062 C 250.253906 242.460938 251.976562 239.53125 253.46875 236.585938 C 254.980469 233.609375 256.339844 230.566406 258.167969 227.765625 C 259.855469 225.179688 261.871094 222.839844 264.058594 220.664062 C 268.558594 216.179688 273.707031 212.4375 278.789062 208.65625 C 284.050781 204.738281 289.894531 200.789062 293.882812 195.503906 C 298.171875 189.8125 298.640625 182.636719 296.199219 176.054688 Z M 144.484375 62.867188 C 145.898438 59.855469 148.316406 57.347656 151.613281 56.488281 C 155.445312 55.488281 159.148438 57.929688 162.414062 59.582031 C 170.023438 63.425781 178.445312 65.082031 186.925781 65.347656 C 195.578125 65.621094 204.394531 64.730469 212.929688 63.34375 C 220.015625 62.191406 227.550781 60.691406 234.667969 62.414062 C 237.976562 63.214844 240.953125 64.8125 243.226562 67.375 C 245.480469 69.90625 246.730469 73.1875 247.6875 76.386719 C 249.859375 83.652344 250.996094 91.09375 255.726562 97.285156 C 260.660156 103.746094 267.359375 108.554688 272.546875 114.800781 C 277.371094 120.605469 281.410156 127.886719 281.722656 135.578125 C 281.953125 141.179688 280.300781 147.03125 276.621094 151.308594 C 276.300781 151.304688 275.949219 151.398438 275.59375 151.617188 C 274.105469 152.535156 272.839844 153.902344 271.457031 154.972656 C 270.050781 156.0625 268.601562 157.097656 267.117188 158.078125 C 264.101562 160.078125 260.945312 161.875 257.671875 163.429688 C 251.273438 166.46875 244.460938 168.074219 237.6875 170.011719 C 238.273438 169.03125 238.867188 168.054688 239.449219 167.074219 C 242.90625 161.25 245.527344 155.207031 245.5625 148.332031 C 245.585938 144.167969 244.730469 139.96875 243.125 136.097656 C 243.167969 135.941406 243.199219 135.78125 243.191406 135.59375 C 242.78125 121.894531 234.539062 109.730469 223.984375 101.511719 C 223.855469 101.414062 223.722656 101.34375 223.585938 101.285156 C 223.167969 100.59375 222.703125 99.925781 222.203125 99.285156 C 217.863281 93.75 211.566406 90.695312 205.011719 88.550781 C 197.035156 85.945312 188.765625 83.632812 180.5 82.167969 C 172.148438 80.691406 163.238281 79.855469 155.109375 82.769531 C 155.046875 82.792969 154.992188 82.824219 154.933594 82.851562 C 152.5 83.292969 150.210938 84.25 148.125 85.570312 C 144.839844 78.679688 140.996094 70.28125 144.484375 62.867188 Z M 275.4375 157.429688 C 275.421875 157.472656 275.402344 157.511719 275.386719 157.558594 C 275.332031 157.558594 275.277344 157.5625 275.21875 157.570312 C 275.292969 157.523438 275.367188 157.476562 275.4375 157.429688 Z M 120.097656 98.777344 C 122.996094 95.84375 126.351562 93.375 130.152344 91.714844 C 133.820312 90.113281 138.765625 88.816406 142.738281 90.214844 C 142.308594 90.699219 141.894531 91.195312 141.5 91.703125 C 137.332031 97.128906 134.796875 103.695312 133.320312 110.335938 C 130.375 123.566406 130.820312 138.410156 138 150.273438 C 138.0625 150.382812 138.140625 150.488281 138.207031 150.59375 C 133.109375 147.164062 128.71875 142.714844 125.375 137.546875 C 120.839844 130.535156 118.398438 122.320312 118.242188 113.976562 C 118.152344 109.054688 118.863281 104.148438 120.34375 99.453125 C 120.4375 99.164062 120.308594 98.929688 120.097656 98.777344 Z M 225.828125 126.722656 C 225.636719 125.085938 225.386719 123.410156 225.058594 121.734375 C 227.429688 124.722656 230.742188 127.046875 233.449219 129.769531 C 237.332031 133.671875 239.824219 138.945312 240.613281 144.382812 C 241.484375 150.414062 240.113281 156.066406 237.320312 161.414062 C 236.210938 163.53125 234.953125 165.609375 233.867188 167.753906 C 233.78125 167.835938 233.691406 167.910156 233.617188 168.019531 C 232.324219 169.976562 231.453125 172.152344 230.222656 174.152344 C 229.027344 176.097656 227.945312 178.105469 226.761719 180.058594 C 224.476562 183.835938 221.582031 187.296875 217.777344 189.621094 C 213.515625 192.222656 208.503906 193.363281 203.628906 194.1875 C 199.292969 194.921875 194.871094 195.230469 190.476562 195.207031 C 190.105469 195.207031 189.734375 195.1875 189.363281 195.179688 C 189.179688 194.929688 188.894531 194.742188 188.480469 194.671875 C 183.386719 193.808594 180.308594 189.359375 177.738281 185.289062 C 174.910156 180.8125 172 176.746094 167.371094 173.976562 C 159.125 169.039062 149.101562 168.5625 140.777344 163.8125 C 137.019531 161.667969 133.683594 158.699219 132.171875 154.640625 C 133.121094 155.335938 134.082031 156.015625 135.074219 156.648438 C 141.929688 161.011719 149.699219 163.632812 157.480469 165.8125 C 161.460938 166.929688 165.488281 167.882812 169.519531 168.808594 C 173.679688 169.761719 178.011719 170.484375 182.285156 169.996094 C 187.910156 170.832031 193.730469 170.777344 199.210938 169.136719 C 204.046875 167.683594 208.472656 165.023438 211.808594 161.210938 C 213.632812 159.125 215.050781 156.722656 215.964844 154.109375 C 215.980469 154.0625 215.972656 154.023438 215.980469 153.976562 C 217.660156 152.4375 219.21875 150.769531 220.585938 148.925781 C 225.347656 142.488281 226.746094 134.574219 225.828125 126.722656 Z M 225.9375 107.324219 C 232.296875 113.320312 237.351562 120.871094 239.246094 129.355469 C 237.695312 127.347656 235.90625 125.566406 233.964844 123.898438 C 231.820312 122.054688 229.46875 120.246094 227.976562 117.804688 C 226.160156 114.835938 226.582031 111.257812 226.058594 107.945312 C 226.027344 107.734375 225.980469 107.53125 225.9375 107.324219 Z M 181.28125 194.609375 C 167.277344 192.875 153.414062 187.253906 143.867188 176.777344 C 140.253906 172.816406 137.382812 168.324219 134.941406 163.585938 C 139.019531 166.988281 144.359375 169.183594 149.277344 170.664062 C 154.164062 172.136719 159.226562 173.308594 163.8125 175.605469 C 166.046875 176.722656 168.148438 178.09375 169.917969 179.867188 C 171.925781 181.878906 173.40625 184.304688 174.914062 186.691406 C 176.683594 189.496094 178.707031 192.445312 181.28125 194.609375 Z M 137.957031 132.003906 C 139.71875 140.960938 143.796875 149.449219 150.230469 155.996094 C 152.683594 158.492188 155.476562 160.648438 158.523438 162.363281 C 157.359375 162.089844 156.195312 161.808594 155.042969 161.503906 C 154.910156 161.265625 154.691406 161.058594 154.355469 160.921875 C 143.601562 156.449219 136.714844 145.542969 135.332031 134.210938 C 134.515625 127.550781 135.113281 120.804688 136.515625 114.269531 C 136.824219 112.835938 137.167969 111.402344 137.554688 109.976562 C 136.582031 117.300781 136.53125 124.742188 137.957031 132.003906 Z M 186.863281 169.132812 C 189.535156 168.441406 192.128906 167.480469 194.691406 166.402344 C 198.058594 164.988281 201.394531 163.488281 204.621094 161.777344 C 207.652344 160.167969 210.613281 158.34375 213.335938 156.230469 C 211.628906 159.507812 209.039062 162.285156 205.988281 164.386719 C 201.6875 167.339844 196.496094 168.8125 191.320312 169.121094 C 189.835938 169.210938 188.347656 169.207031 186.863281 169.132812 Z M 219.441406 142.804688 C 219.324219 143.03125 219.191406 143.242188 219.070312 143.464844 C 220.167969 138.472656 220.621094 133.339844 220.363281 128.234375 C 220.039062 121.800781 218.796875 115.046875 215.339844 109.5 C 214.511719 108.171875 213.535156 106.941406 212.429688 105.84375 C 217.632812 109.210938 219.867188 115.929688 221.085938 121.6875 C 222.570312 128.683594 222.710938 136.269531 219.441406 142.804688 Z M 218.402344 106.132812 C 213.390625 100.058594 205.113281 98.734375 197.65625 99.6875 C 190.175781 100.644531 183.257812 103.90625 177.246094 108.378906 C 171.101562 112.945312 164.863281 118.316406 160.640625 124.773438 C 156.386719 131.277344 154.890625 139.84375 157.179688 147.316406 C 159.292969 154.230469 165 161.007812 171.757812 163.777344 C 179.617188 167 187.453125 162.234375 193.472656 157.46875 C 199.117188 153 204.890625 147.582031 206.652344 140.320312 C 208.3125 133.488281 205.507812 126.195312 200.515625 121.445312 C 194.964844 116.164062 187.132812 114.332031 179.667969 115.449219 C 177.875 115.714844 176.140625 116.140625 174.453125 116.699219 C 174.773438 116.359375 175.085938 116.015625 175.414062 115.683594 C 180.019531 111.027344 186.09375 107.226562 192.28125 105.09375 C 196.851562 103.519531 202.335938 102.636719 207.246094 103.722656 C 207.296875 103.769531 207.34375 103.8125 207.414062 103.851562 C 212.652344 106.503906 215.578125 111.941406 217.136719 117.386719 C 219.035156 124.039062 219.3125 131.285156 218.433594 138.121094 C 218.027344 141.277344 217.347656 144.394531 216.417969 147.433594 C 213.796875 150.691406 210.484375 153.378906 206.945312 155.625 C 201.367188 159.167969 195.15625 162.078125 188.914062 164.242188 C 185.21875 165.519531 181.46875 166.285156 177.546875 166.019531 C 173.714844 165.757812 169.910156 164.773438 166.15625 164.011719 C 165.238281 163.824219 164.320312 163.636719 163.402344 163.445312 C 163.335938 163.285156 163.21875 163.144531 163.0625 163.082031 C 155.085938 159.820312 148.777344 153.53125 144.605469 146.082031 C 139.765625 137.441406 138.097656 127.441406 138.457031 117.628906 C 138.652344 112.230469 139.460938 106.871094 140.65625 101.605469 C 141.488281 99.9375 142.4375 98.332031 143.574219 96.839844 C 147.289062 91.953125 152.566406 88.4375 158.316406 86.382812 C 158.707031 86.246094 159.007812 86.015625 159.222656 85.738281 C 165.160156 85.382812 171.117188 85.492188 177.003906 86.441406 C 184.246094 87.613281 191.328125 89.570312 198.378906 91.558594 C 204.53125 93.296875 211.070312 95.117188 215.945312 99.46875 C 218.011719 101.3125 219.820312 103.558594 220.777344 106.179688 C 221.386719 107.855469 221.574219 109.59375 221.714844 111.339844 C 220.800781 109.476562 219.714844 107.71875 218.402344 106.132812 Z M 177.644531 148.472656 C 177.472656 147.863281 177.457031 147.511719 177.457031 146.773438 C 177.464844 145.011719 177.773438 143.253906 178 141.511719 C 178.855469 144.246094 180.429688 146.742188 182.566406 148.652344 C 182.191406 148.757812 181.816406 148.867188 181.445312 148.972656 C 180.6875 149.183594 179.90625 149.457031 179.125 149.554688 C 178.566406 149.625 178.265625 149.539062 178.078125 149.367188 C 177.8125 149.128906 177.960938 149.300781 177.8125 148.96875 C 177.917969 149.199219 177.675781 148.570312 177.644531 148.472656 Z M 180.402344 136.472656 C 180.417969 135.746094 179.867188 135.113281 179.183594 134.949219 C 178.875 134.566406 178.214844 134.441406 177.828125 134.835938 C 174.730469 138.003906 172.457031 141.714844 172.070312 146.214844 C 171.707031 150.429688 173.671875 154.878906 178.359375 155.25 C 180.589844 155.425781 182.835938 154.617188 184.949219 154.003906 C 187.007812 153.40625 189.085938 152.785156 191.0625 151.949219 C 193.921875 150.738281 196.585938 149.191406 198.929688 147.214844 C 198.234375 148.074219 197.5 148.894531 196.742188 149.65625 C 194.371094 152.042969 191.753906 154.210938 189.027344 156.175781 C 186.085938 158.296875 182.890625 160.195312 179.316406 160.988281 C 172.214844 162.570312 165.929688 157.101562 162.746094 151.242188 C 161.222656 148.441406 160.152344 145.082031 160.359375 141.863281 C 160.578125 138.515625 161.65625 135.332031 163.261719 132.398438 C 165.023438 129.179688 166.953125 126.085938 169.097656 123.148438 C 169.691406 123.4375 170.414062 123.480469 171.15625 123.070312 C 177.109375 119.769531 184.320312 118.230469 190.964844 120.179688 C 191.167969 120.238281 191.363281 120.308594 191.558594 120.375 C 191.65625 120.601562 191.863281 120.792969 192.097656 120.835938 C 196.226562 121.570312 198.179688 125.890625 198.4375 129.675781 C 198.601562 132.035156 198.300781 134.402344 197.988281 136.738281 C 197.71875 138.769531 197.398438 140.839844 196.605469 142.742188 C 195.046875 143.878906 193.324219 144.792969 191.53125 145.582031 C 189.691406 146.390625 187.785156 147.058594 185.863281 147.667969 C 185.796875 147.421875 185.675781 147.203125 185.46875 147.039062 C 182.171875 144.449219 180.316406 140.5625 180.402344 136.472656 Z M 198.824219 124.964844 C 200.769531 126.972656 202.25 129.421875 203.054688 132.113281 C 202.828125 133.585938 202.554688 134.894531 201.90625 136.265625 C 201.257812 137.644531 200.5 138.9375 199.503906 140.097656 C 199.292969 140.339844 199.070312 140.570312 198.847656 140.800781 C 199.03125 140.058594 199.1875 139.308594 199.304688 138.550781 C 199.613281 136.566406 199.875 134.5625 199.992188 132.5625 C 200.140625 129.964844 199.878906 127.304688 198.824219 124.964844 Z M 118.394531 125.601562 C 120.554688 133.390625 124.84375 140.503906 130.589844 146.171875 C 133.4375 148.976562 136.660156 151.386719 140.125 153.375 C 141.3125 154.953125 142.625 156.4375 144.0625 157.789062 C 137.972656 155.148438 132.480469 151.503906 127.839844 146.746094 C 127.828125 146.710938 127.8125 146.671875 127.796875 146.636719 C 127.578125 146.039062 127.160156 145.679688 126.6875 145.507812 C 118.453125 136.457031 113.589844 124.230469 115.1875 111.917969 C 115.703125 107.960938 116.757812 104.128906 118.082031 100.382812 C 118.210938 100.371094 118.335938 100.351562 118.460938 100.300781 C 116.121094 108.527344 116.109375 117.359375 118.394531 125.601562 Z M 119.15625 140.800781 C 119.453125 141.261719 119.746094 141.730469 120.058594 142.183594 C 121.300781 143.976562 122.660156 145.675781 124.109375 147.300781 C 124.128906 147.425781 124.160156 147.554688 124.210938 147.691406 C 127.953125 157.929688 132.082031 168.257812 138.960938 176.847656 C 144.703125 184.019531 152.183594 189.722656 160.53125 193.539062 C 169.128906 197.476562 178.386719 199.464844 187.820312 199.847656 C 192.496094 200.039062 197.1875 199.816406 201.828125 199.1875 C 207.082031 198.476562 212.34375 197.429688 217.199219 195.242188 C 221.554688 193.277344 225.101562 190.210938 228.011719 186.527344 C 227.433594 189.523438 226.902344 192.527344 226.265625 195.511719 C 223.4375 202.207031 218.828125 208 213.378906 212.761719 C 207.589844 217.824219 200.855469 221.941406 193.796875 224.976562 C 189.828125 226.6875 185.5625 228.019531 181.203125 228.082031 C 179.023438 228.113281 176.878906 227.808594 174.804688 227.144531 C 172.792969 226.507812 170.878906 225.597656 168.945312 224.761719 C 167.023438 223.925781 165.0625 223.132812 163.003906 222.710938 C 160.730469 222.242188 158.410156 222.203125 156.097656 222.285156 C 153.8125 222.367188 151.527344 222.550781 149.234375 222.492188 C 147.328125 222.441406 145.425781 222.230469 143.554688 221.859375 C 137.164062 220.585938 131.171875 217.550781 126.367188 213.175781 C 123.261719 208.828125 121.035156 203.921875 119.535156 198.6875 C 117.074219 190.121094 115.957031 181.039062 115.480469 172.15625 C 114.988281 163.03125 115.570312 153.871094 117.921875 145.011719 C 118.296875 143.601562 118.71875 142.195312 119.15625 140.800781 Z M 140.050781 222.371094 C 143.941406 223.515625 147.964844 223.957031 152.011719 223.820312 C 154.421875 223.738281 156.828125 223.53125 159.242188 223.621094 C 161.554688 223.703125 163.757812 224.160156 165.925781 224.960938 C 170.039062 226.484375 173.828125 228.703125 178.25 229.265625 C 182.667969 229.832031 187.136719 228.929688 191.300781 227.476562 C 195.285156 226.085938 199.09375 224.167969 202.746094 222.070312 C 206.113281 220.128906 209.359375 217.964844 212.394531 215.535156 C 217.125 211.746094 221.367188 207.25 224.582031 202.101562 C 224.574219 202.117188 224.570312 202.128906 224.566406 202.144531 C 222.636719 208.324219 219.578125 214.445312 214.242188 218.363281 C 213.800781 218.6875 213.601562 219.121094 213.574219 219.554688 C 207.054688 223.097656 200.3125 226.1875 193.269531 228.507812 C 178.878906 233.246094 163.433594 234.269531 148.957031 229.292969 C 142.441406 227.054688 136.230469 223.527344 131.214844 218.785156 C 130.921875 218.511719 130.660156 218.21875 130.382812 217.9375 C 133.375 219.847656 136.628906 221.363281 140.050781 222.371094 Z M 226.664062 206.582031 C 229.0625 200.1875 229.773438 193.398438 231.199219 186.761719 C 231.753906 184.191406 232.386719 181.675781 233.226562 179.214844 C 233.292969 179.222656 233.351562 179.242188 233.425781 179.238281 C 239.890625 178.8125 246.398438 177.679688 252.585938 175.75 C 258.164062 174.007812 263.542969 171.464844 268.007812 167.644531 C 268.28125 167.410156 268.535156 167.152344 268.800781 166.910156 C 265.285156 172.429688 261.707031 177.902344 258.058594 183.347656 C 255.585938 187.039062 253.078125 190.738281 250.09375 194.042969 C 246.996094 197.476562 243.375 200.328125 239.597656 202.976562 C 234.09375 206.835938 228.488281 210.664062 222.722656 214.230469 C 224.347656 211.871094 225.652344 209.277344 226.664062 206.582031 Z M 244.039062 176.441406 C 240.632812 177.109375 237.191406 177.609375 233.730469 177.855469 C 233.945312 177.292969 234.148438 176.734375 234.390625 176.183594 C 235.109375 174.53125 235.96875 172.949219 236.871094 171.390625 C 237.011719 171.617188 237.25 171.789062 237.578125 171.796875 C 244.976562 171.960938 252.359375 169.554688 259.082031 166.613281 C 262.484375 165.125 265.78125 163.421875 268.914062 161.429688 C 270.078125 160.691406 271.214844 159.910156 272.335938 159.105469 C 272.34375 159.101562 272.355469 159.101562 272.367188 159.09375 C 273.058594 158.792969 273.722656 158.449219 274.371094 158.082031 C 274.335938 158.125 274.296875 158.164062 274.265625 158.214844 C 273.984375 158.671875 273.695312 159.128906 273.410156 159.585938 C 273.136719 159.546875 272.855469 159.621094 272.695312 159.878906 C 266.566406 169.875 255.03125 174.277344 244.039062 176.441406 Z M 131.917969 74.445312 C 133.890625 72.671875 136.433594 71.335938 139.085938 71.011719 C 139.902344 70.914062 140.277344 70.21875 140.222656 69.589844 C 140.253906 69.589844 140.285156 69.585938 140.320312 69.582031 C 140.507812 73.691406 141.925781 77.789062 143.722656 81.429688 C 144.597656 83.203125 145.585938 84.917969 146.585938 86.625 C 146.085938 87.003906 145.597656 87.410156 145.121094 87.828125 C 140.324219 85.527344 134.40625 86.605469 129.660156 88.542969 C 126.335938 89.902344 123.292969 91.804688 120.5625 94.097656 C 121.144531 92.726562 121.746094 91.359375 122.355469 90.007812 C 124.832031 84.511719 127.34375 78.5625 131.917969 74.445312 Z M 86.242188 108.441406 C 85.433594 105.121094 85.378906 101.578125 86.441406 98.308594 C 87.488281 95.09375 89.910156 92.882812 92.964844 91.550781 C 96.800781 89.875 100.972656 89 104.875 87.464844 C 109.09375 85.808594 113.199219 83.832031 117.097656 81.515625 C 120.785156 79.324219 124.234375 76.769531 127.84375 74.460938 C 126.59375 75.890625 125.480469 77.46875 124.496094 79.074219 C 122.648438 82.089844 121.183594 85.316406 119.714844 88.527344 C 117.976562 92.332031 116.3125 96.179688 114.941406 100.132812 C 112.371094 107.546875 111.097656 115.320312 112.308594 123.125 C 113.085938 128.160156 114.800781 133.035156 117.214844 137.527344 C 117.195312 137.5625 117.171875 137.589844 117.152344 137.628906 C 116.65625 138.65625 116.207031 139.703125 115.792969 140.765625 C 115.558594 140.320312 115.203125 139.929688 114.757812 139.632812 C 103.171875 131.9375 89.734375 122.800781 86.242188 108.441406 Z M 154.097656 244.75 C 147.152344 245.476562 140.003906 245.882812 133.085938 244.703125 C 120.242188 242.519531 109.082031 235.496094 98.425781 228.402344 C 93.605469 225.199219 88.425781 222.046875 85.074219 217.191406 C 81.527344 212.054688 80.894531 205.808594 81.332031 199.730469 C 81.820312 192.976562 83.765625 186.433594 84.671875 179.738281 C 85.164062 176.097656 85.417969 172.4375 85.074219 168.769531 C 84.75 165.375 84.039062 162.027344 83.785156 158.625 C 83.566406 155.707031 83.691406 152.644531 85 149.96875 C 86.300781 147.304688 88.4375 145.742188 91.378906 145.246094 C 94.808594 144.667969 98.511719 145.097656 101.96875 145.171875 C 106.082031 145.261719 110.183594 145.285156 114.296875 145.242188 C 112.476562 151.671875 111.84375 158.496094 111.765625 165.105469 C 111.65625 174.492188 112.683594 184 114.511719 193.203125 C 116.210938 201.738281 119.148438 210.257812 124.566406 217.183594 C 129.117188 222.996094 135.023438 227.589844 141.695312 230.738281 C 148.449219 233.921875 155.683594 235.75 163.035156 236.394531 C 163.828125 237.199219 164.636719 237.992188 165.523438 238.6875 C 166.871094 239.75 168.328125 240.585938 169.824219 241.417969 C 170.523438 241.808594 171.230469 242.183594 171.9375 242.554688 C 165.996094 243.304688 160.054688 244.125 154.097656 244.75 Z M 291.40625 191.15625 C 289.769531 193.890625 287.375 196.085938 284.964844 198.132812 C 282.660156 200.09375 280.253906 201.925781 277.832031 203.738281 C 272.84375 207.46875 267.753906 211.097656 263.128906 215.28125 C 258.535156 219.4375 254.558594 224.183594 251.660156 229.671875 C 250.1875 232.453125 248.886719 235.339844 247.164062 237.980469 C 245.496094 240.546875 243.332031 242.558594 240.644531 244.019531 C 235.296875 246.929688 228.695312 248.039062 222.691406 248.574219 C 216.386719 249.136719 210.003906 248.898438 203.75 247.945312 C 196.503906 246.839844 189.378906 244.859375 182.519531 242.28125 C 179.167969 241.019531 175.898438 239.550781 172.6875 237.96875 C 171.835938 237.550781 171.003906 237.089844 170.160156 236.652344 C 175.765625 236.566406 181.375 235.828125 186.832031 234.480469 C 204.6875 230.078125 220.644531 220.242188 235.6875 209.988281 C 239.53125 207.371094 243.398438 204.765625 246.996094 201.8125 C 250.648438 198.8125 253.675781 195.265625 256.375 191.394531 C 259.144531 187.421875 261.574219 183.214844 264.117188 179.097656 C 266.832031 174.707031 269.539062 170.320312 272.402344 166.023438 C 273.722656 164.035156 275.046875 162.046875 276.371094 160.058594 C 281.609375 163.953125 287.035156 168.125 290.425781 173.816406 C 293.539062 179.046875 294.660156 185.71875 291.40625 191.15625 Z M 291.40625 191.15625 " fill-opacity="1" fill-rule="nonzero"/></g><g fill="#00253d" fill-opacity="1"><g transform="translate(119.551417, 327.522958)"><g><path d="M 30.09375 -54.34375 C 35.613281 -54.34375 40.269531 -53.175781 44.0625 -50.84375 C 47.851562 -48.519531 50.71875 -45.285156 52.65625 -41.140625 C 54.601562 -36.992188 55.578125 -32.238281 55.578125 -26.875 C 55.578125 -21.03125 54.550781 -16.0625 52.5 -11.96875 C 50.457031 -7.875 47.539062 -4.753906 43.75 -2.609375 C 39.96875 -0.460938 35.441406 0.609375 30.171875 0.609375 C 25.515625 0.609375 21.316406 -0.472656 17.578125 -2.640625 C 13.835938 -4.816406 10.867188 -7.914062 8.671875 -11.9375 C 6.472656 -15.957031 5.375 -20.703125 5.375 -26.171875 C 5.375 -31.910156 6.4375 -36.890625 8.5625 -41.109375 C 10.6875 -45.328125 13.613281 -48.585938 17.34375 -50.890625 C 21.082031 -53.191406 25.332031 -54.34375 30.09375 -54.34375 Z M 29.9375 -52.8125 C 26.71875 -52.8125 23.890625 -52.320312 21.453125 -51.34375 C 19.023438 -50.375 16.660156 -48.992188 14.359375 -47.203125 C 12.304688 -44.703125 10.550781 -41.8125 9.09375 -38.53125 C 7.632812 -35.257812 6.90625 -31.113281 6.90625 -26.09375 C 6.90625 -21.132812 7.941406 -16.757812 10.015625 -12.96875 C 12.085938 -9.1875 14.875 -6.234375 18.375 -4.109375 C 21.882812 -1.984375 25.816406 -0.921875 30.171875 -0.921875 C 34.109375 -0.921875 37.445312 -1.46875 40.1875 -2.5625 C 42.925781 -3.664062 45.523438 -5.269531 47.984375 -7.375 C 49.773438 -9.925781 51.234375 -12.722656 52.359375 -15.765625 C 53.484375 -18.816406 54.046875 -22.492188 54.046875 -26.796875 C 54.046875 -31.910156 53.132812 -36.425781 51.3125 -40.34375 C 49.5 -44.257812 46.800781 -47.316406 43.21875 -49.515625 C 39.632812 -51.710938 35.207031 -52.8125 29.9375 -52.8125 Z M 29.9375 -52.8125 "/></g></g></g><g fill="#00253d" fill-opacity="1"><g transform="translate(180.506377, 327.522958)"><g><path d="M 17.34375 0 L 4.140625 0 L 4.21875 -0.765625 L 9.75 -1.15625 L 9.75 -35.46875 L 3.078125 -35.46875 L 3.078125 -36.390625 L 9.515625 -36.84375 L 10.90625 -36.84375 C 11.101562 -35.71875 11.210938 -34.628906 11.234375 -33.578125 C 11.265625 -32.535156 11.28125 -31.453125 11.28125 -30.328125 C 13.28125 -32.472656 15.800781 -34.1875 18.84375 -35.46875 C 21.882812 -36.75 25.046875 -37.414062 28.328125 -37.46875 L 28.640625 -36.3125 L 28.328125 -28.25 L 27.328125 -28.328125 L 27.09375 -36.078125 C 23.769531 -35.773438 20.800781 -35.035156 18.1875 -33.859375 C 15.582031 -32.679688 13.28125 -30.863281 11.28125 -28.40625 L 11.28125 -1.15625 L 17.421875 -0.765625 Z M 17.34375 0 "/></g></g></g><g fill="#00253d" fill-opacity="1"><g transform="translate(212.979867, 327.522958)"><g><path d="M 9.21875 -34.78125 L 9.140625 -25.71875 L 7.90625 -25.640625 L 7.21875 -34.703125 L 7.453125 -35.765625 C 8.929688 -36.234375 10.640625 -36.632812 12.578125 -36.96875 C 14.523438 -37.300781 16.65625 -37.46875 18.96875 -37.46875 C 23.363281 -37.46875 26.597656 -36.273438 28.671875 -33.890625 C 30.742188 -31.515625 31.78125 -28.046875 31.78125 -23.484375 L 31.78125 -1.15625 L 38.609375 -0.765625 L 38.53125 0 L 30.625 0 L 30.25 -7.140625 C 28.65625 -5.242188 26.578125 -3.476562 24.015625 -1.84375 C 21.460938 -0.207031 18.445312 0.609375 14.96875 0.609375 C 11.28125 0.609375 8.566406 -0.296875 6.828125 -2.109375 C 5.085938 -3.929688 4.21875 -6.066406 4.21875 -8.515625 C 4.21875 -10.304688 4.367188 -11.867188 4.671875 -13.203125 C 4.984375 -14.535156 5.320312 -15.582031 5.6875 -16.34375 C 8.238281 -16.914062 10.984375 -17.378906 13.921875 -17.734375 C 16.867188 -18.085938 19.765625 -18.367188 22.609375 -18.578125 C 25.453125 -18.785156 28 -18.9375 30.25 -19.03125 L 30.25 -23.34375 C 30.25 -27.28125 29.351562 -30.398438 27.5625 -32.703125 C 25.769531 -35.003906 22.90625 -36.15625 18.96875 -36.15625 C 17.175781 -36.15625 15.367188 -36 13.546875 -35.6875 C 11.734375 -35.382812 10.289062 -35.082031 9.21875 -34.78125 Z M 15.046875 -0.6875 C 17.398438 -0.6875 19.535156 -1.117188 21.453125 -1.984375 C 23.367188 -2.859375 25.066406 -3.945312 26.546875 -5.25 C 28.035156 -6.5625 29.269531 -7.859375 30.25 -9.140625 L 30.25 -17.734375 C 28.707031 -17.679688 26.875 -17.578125 24.75 -17.421875 C 22.632812 -17.273438 20.445312 -17.097656 18.1875 -16.890625 C 15.9375 -16.679688 13.8125 -16.4375 11.8125 -16.15625 C 9.820312 -15.875 8.160156 -15.554688 6.828125 -15.203125 C 6.578125 -14.484375 6.332031 -13.585938 6.09375 -12.515625 C 5.863281 -11.441406 5.75 -10.238281 5.75 -8.90625 C 5.75 -6.550781 6.515625 -4.59375 8.046875 -3.03125 C 9.585938 -1.46875 11.921875 -0.6875 15.046875 -0.6875 Z M 15.046875 -0.6875 "/></g></g></g></svg>