<svg xmlns="http://www.w3.org/2000/svg" xmlns:xlink="http://www.w3.org/1999/xlink" width="40" zoomAndPan="magnify" viewBox="0 0 30 30.000001" height="40" preserveAspectRatio="xMidYMid meet" version="1.0"><defs><clipPath id="b1334e0b72"><path d="M 0.484375 0 L 29.515625 0 L 29.515625 29.03125 L 0.484375 29.03125 Z M 0.484375 0 " clip-rule="nonzero"/></clipPath><clipPath id="08d56069ce"><path d="M 15 0 C 6.984375 0 0.484375 6.5 0.484375 14.515625 C 0.484375 22.53125 6.984375 29.03125 15 29.03125 C 23.015625 29.03125 29.515625 22.53125 29.515625 14.515625 C 29.515625 6.5 23.015625 0 15 0 Z M 15 0 " clip-rule="nonzero"/></clipPath><clipPath id="305167a728"><path d="M 0.484375 0 L 29.515625 0 L 29.515625 29.03125 L 0.484375 29.03125 Z M 0.484375 0 " clip-rule="nonzero"/></clipPath><clipPath id="2e8d748542"><path d="M 15 0 C 6.984375 0 0.484375 6.5 0.484375 14.515625 C 0.484375 22.53125 6.984375 29.03125 15 29.03125 C 23.015625 29.03125 29.515625 22.53125 29.515625 14.515625 C 29.515625 6.5 23.015625 0 15 0 Z M 15 0 " clip-rule="nonzero"/></clipPath><clipPath id="9c407c9443"><rect x="0" width="30" y="0" height="30"/></clipPath><clipPath id="4d80d8194f"><path d="M 1.699219 1.214844 L 28.300781 1.214844 L 28.300781 27.816406 L 1.699219 27.816406 Z M 1.699219 1.214844 " clip-rule="nonzero"/></clipPath><clipPath id="bb41fd9502"><path d="M 15 1.214844 C 7.652344 1.214844 1.699219 7.171875 1.699219 14.515625 C 1.699219 21.863281 7.652344 27.816406 15 27.816406 C 22.347656 27.816406 28.300781 21.863281 28.300781 14.515625 C 28.300781 7.171875 22.347656 1.214844 15 1.214844 Z M 15 1.214844 " clip-rule="nonzero"/></clipPath><clipPath id="2f50c48226"><path d="M 0.699219 0.214844 L 27.300781 0.214844 L 27.300781 26.816406 L 0.699219 26.816406 Z M 0.699219 0.214844 " clip-rule="nonzero"/></clipPath><clipPath id="0e49f9f358"><path d="M 14 0.214844 C 6.652344 0.214844 0.699219 6.171875 0.699219 13.515625 C 0.699219 20.863281 6.652344 26.816406 14 26.816406 C 21.347656 26.816406 27.300781 20.863281 27.300781 13.515625 C 27.300781 6.171875 21.347656 0.214844 14 0.214844 Z M 14 0.214844 " clip-rule="nonzero"/></clipPath><clipPath id="675ff6ab59"><rect x="0" width="28" y="0" height="27"/></clipPath><clipPath id="9b5bad0882"><path d="M 2.039062 1.554688 L 27.960938 1.554688 L 27.960938 27.476562 L 2.039062 27.476562 Z M 2.039062 1.554688 " clip-rule="nonzero"/></clipPath><clipPath id="0ac019ffce"><path d="M 15 1.554688 C 7.84375 1.554688 2.039062 7.359375 2.039062 14.515625 C 2.039062 21.671875 7.84375 27.476562 15 27.476562 C 22.15625 27.476562 27.960938 21.671875 27.960938 14.515625 C 27.960938 7.359375 22.15625 1.554688 15 1.554688 Z M 15 1.554688 " clip-rule="nonzero"/></clipPath><clipPath id="27a4260a8f"><path d="M 0.0390625 0.554688 L 25.960938 0.554688 L 25.960938 26.476562 L 0.0390625 26.476562 Z M 0.0390625 0.554688 " clip-rule="nonzero"/></clipPath><clipPath id="98a84093b0"><path d="M 13 0.554688 C 5.84375 0.554688 0.0390625 6.359375 0.0390625 13.515625 C 0.0390625 20.671875 5.84375 26.476562 13 26.476562 C 20.15625 26.476562 25.960938 20.671875 25.960938 13.515625 C 25.960938 6.359375 20.15625 0.554688 13 0.554688 Z M 13 0.554688 " clip-rule="nonzero"/></clipPath><clipPath id="7f76c445ab"><rect x="0" width="26" y="0" height="27"/></clipPath><clipPath id="16db143872"><path d="M 2.382812 1.898438 L 27.617188 1.898438 L 27.617188 27.136719 L 2.382812 27.136719 Z M 2.382812 1.898438 " clip-rule="nonzero"/></clipPath><clipPath id="ddf47d1d10"><path d="M 15 1.898438 C 8.03125 1.898438 2.382812 7.546875 2.382812 14.515625 C 2.382812 21.484375 8.03125 27.136719 15 27.136719 C 21.96875 27.136719 27.617188 21.484375 27.617188 14.515625 C 27.617188 7.546875 21.96875 1.898438 15 1.898438 Z M 15 1.898438 " clip-rule="nonzero"/></clipPath><clipPath id="9759ac08f6"><path d="M 0.382812 0.898438 L 25.617188 0.898438 L 25.617188 26.136719 L 0.382812 26.136719 Z M 0.382812 0.898438 " clip-rule="nonzero"/></clipPath><clipPath id="a87a603f25"><path d="M 13 0.898438 C 6.03125 0.898438 0.382812 6.546875 0.382812 13.515625 C 0.382812 20.484375 6.03125 26.136719 13 26.136719 C 19.96875 26.136719 25.617188 20.484375 25.617188 13.515625 C 25.617188 6.546875 19.96875 0.898438 13 0.898438 Z M 13 0.898438 " clip-rule="nonzero"/></clipPath><clipPath id="2a4cd3084a"><rect x="0" width="26" y="0" height="27"/></clipPath><clipPath id="717797a73c"><path d="M 5.109375 5.546875 L 24.707031 5.546875 L 24.707031 23.695312 L 5.109375 23.695312 Z M 5.109375 5.546875 " clip-rule="nonzero"/></clipPath></defs><g clip-path="url(#b1334e0b72)"><g clip-path="url(#08d56069ce)"><g transform="matrix(1, 0, 0, 1, 0, 0.000000000000005692)"><g clip-path="url(#9c407c9443)"><g clip-path="url(#305167a728)"><g clip-path="url(#2e8d748542)"><path fill="#00253d" d="M 0.484375 0 L 29.515625 0 L 29.515625 29.03125 L 0.484375 29.03125 Z M 0.484375 0 " fill-opacity="1" fill-rule="nonzero"/></g></g></g></g></g></g><g clip-path="url(#4d80d8194f)"><g clip-path="url(#bb41fd9502)"><g transform="matrix(1, 0, 0, 1, 1, 1)"><g clip-path="url(#675ff6ab59)"><g clip-path="url(#2f50c48226)"><g clip-path="url(#0e49f9f358)"><path fill="#c9e6f8" d="M 0.699219 0.214844 L 27.300781 0.214844 L 27.300781 26.816406 L 0.699219 26.816406 Z M 0.699219 0.214844 " fill-opacity="1" fill-rule="nonzero"/></g></g></g></g></g></g><g clip-path="url(#9b5bad0882)"><g clip-path="url(#0ac019ffce)"><g transform="matrix(1, 0, 0, 1, 2, 1)"><g clip-path="url(#7f76c445ab)"><g clip-path="url(#27a4260a8f)"><g clip-path="url(#98a84093b0)"><path fill="#00253d" d="M 0.0390625 0.554688 L 25.960938 0.554688 L 25.960938 26.476562 L 0.0390625 26.476562 Z M 0.0390625 0.554688 " fill-opacity="1" fill-rule="nonzero"/></g></g></g></g></g></g><g clip-path="url(#16db143872)"><g clip-path="url(#ddf47d1d10)"><g transform="matrix(1, 0, 0, 1, 2, 1)"><g clip-path="url(#2a4cd3084a)"><g clip-path="url(#9759ac08f6)"><g clip-path="url(#a87a603f25)"><path fill="#c9e6f8" d="M 0.382812 0.898438 L 25.617188 0.898438 L 25.617188 26.136719 L 0.382812 26.136719 Z M 0.382812 0.898438 " fill-opacity="1" fill-rule="nonzero"/></g></g></g></g></g></g><g clip-path="url(#717797a73c)"><path fill="#000000" d="M 24.492188 16.679688 C 24.273438 16.078125 23.824219 15.613281 23.339844 15.214844 C 23.21875 15.117188 23.097656 15.023438 22.972656 14.925781 C 22.925781 14.890625 22.878906 14.875 22.835938 14.878906 C 23.195312 14.574219 23.4375 14.136719 23.539062 13.660156 C 23.699219 12.9375 23.507812 12.195312 23.144531 11.566406 C 22.953125 11.238281 22.714844 10.933594 22.457031 10.65625 C 22.199219 10.375 21.910156 10.121094 21.636719 9.851562 C 21.371094 9.585938 21.121094 9.300781 20.960938 8.957031 C 20.8125 8.648438 20.742188 8.308594 20.664062 7.976562 C 20.5 7.304688 20.273438 6.628906 19.640625 6.28125 C 19.023438 5.941406 18.28125 5.992188 17.613281 6.09375 C 16.832031 6.210938 16.058594 6.378906 15.265625 6.390625 C 14.488281 6.40625 13.691406 6.308594 12.984375 5.960938 C 12.640625 5.789062 12.296875 5.554688 11.894531 5.585938 C 11.558594 5.613281 11.296875 5.800781 11.097656 6.066406 C 10.953125 6.257812 10.855469 6.480469 10.804688 6.714844 C 10.804688 6.714844 10.804688 6.714844 10.800781 6.714844 C 10.007812 6.625 9.351562 7.183594 8.730469 7.597656 C 8.390625 7.828125 8.027344 8.03125 7.648438 8.191406 C 7.289062 8.347656 6.90625 8.441406 6.542969 8.585938 C 6.179688 8.730469 5.855469 8.957031 5.675781 9.320312 C 5.511719 9.648438 5.464844 10.035156 5.507812 10.398438 C 5.589844 11.121094 5.957031 11.769531 6.429688 12.300781 C 6.828125 12.746094 7.300781 13.117188 7.785156 13.460938 C 7.683594 13.453125 7.582031 13.449219 7.480469 13.441406 C 7.171875 13.425781 6.851562 13.386719 6.542969 13.417969 C 6.242188 13.445312 5.953125 13.542969 5.734375 13.761719 C 5.546875 13.953125 5.429688 14.210938 5.371094 14.472656 C 5.238281 15.097656 5.464844 15.703125 5.480469 16.328125 C 5.496094 17 5.316406 17.652344 5.222656 18.3125 C 5.136719 18.894531 5.109375 19.519531 5.308594 20.082031 C 5.511719 20.652344 5.929688 21.0625 6.402344 21.40625 C 6.871094 21.746094 7.375 22.050781 7.875 22.347656 C 8.398438 22.65625 8.945312 22.9375 9.53125 23.117188 C 10.222656 23.332031 10.949219 23.367188 11.664062 23.304688 C 12.417969 23.242188 13.171875 23.121094 13.917969 23.003906 C 13.984375 22.996094 14.042969 22.964844 14.074219 22.914062 C 14.109375 22.925781 14.140625 22.941406 14.171875 22.957031 C 14.734375 23.203125 15.316406 23.390625 15.917969 23.511719 C 16.503906 23.628906 17.105469 23.6875 17.699219 23.664062 C 18.289062 23.640625 18.898438 23.550781 19.453125 23.339844 C 19.742188 23.230469 20.019531 23.082031 20.238281 22.859375 C 20.449219 22.652344 20.601562 22.386719 20.730469 22.125 C 20.863281 21.855469 20.984375 21.582031 21.144531 21.332031 C 21.292969 21.097656 21.472656 20.886719 21.664062 20.691406 C 22.058594 20.289062 22.511719 19.953125 22.960938 19.613281 C 23.421875 19.261719 23.9375 18.90625 24.289062 18.429688 C 24.664062 17.917969 24.707031 17.273438 24.492188 16.679688 Z M 11.144531 6.503906 C 11.269531 6.234375 11.480469 6.007812 11.769531 5.929688 C 12.109375 5.839844 12.433594 6.058594 12.722656 6.207031 C 13.390625 6.554688 14.132812 6.703125 14.878906 6.726562 C 15.640625 6.75 16.414062 6.671875 17.164062 6.546875 C 17.789062 6.441406 18.453125 6.308594 19.078125 6.464844 C 19.371094 6.535156 19.628906 6.679688 19.832031 6.910156 C 20.027344 7.136719 20.140625 7.433594 20.222656 7.71875 C 20.414062 8.371094 20.515625 9.042969 20.929688 9.597656 C 21.363281 10.179688 21.953125 10.613281 22.410156 11.171875 C 22.835938 11.695312 23.191406 12.351562 23.21875 13.042969 C 23.238281 13.546875 23.09375 14.070312 22.769531 14.457031 C 22.742188 14.457031 22.710938 14.464844 22.679688 14.484375 C 22.546875 14.566406 22.4375 14.6875 22.3125 14.785156 C 22.191406 14.882812 22.0625 14.976562 21.933594 15.066406 C 21.667969 15.246094 21.390625 15.40625 21.101562 15.546875 C 20.539062 15.820312 19.9375 15.964844 19.34375 16.136719 C 19.394531 16.050781 19.449219 15.960938 19.5 15.875 C 19.804688 15.351562 20.035156 14.804688 20.035156 14.1875 C 20.039062 13.8125 19.964844 13.4375 19.820312 13.089844 C 19.824219 13.074219 19.828125 13.058594 19.828125 13.042969 C 19.792969 11.8125 19.066406 10.71875 18.136719 9.980469 C 18.125 9.96875 18.113281 9.964844 18.101562 9.957031 C 18.066406 9.894531 18.023438 9.835938 17.980469 9.777344 C 17.597656 9.28125 17.046875 9.007812 16.46875 8.8125 C 15.765625 8.578125 15.039062 8.371094 14.3125 8.238281 C 13.578125 8.105469 12.792969 8.03125 12.078125 8.292969 C 12.074219 8.296875 12.070312 8.296875 12.0625 8.300781 C 11.847656 8.339844 11.648438 8.425781 11.464844 8.546875 C 11.175781 7.925781 10.835938 7.171875 11.144531 6.503906 Z M 22.664062 15.007812 C 22.664062 15.011719 22.660156 15.015625 22.660156 15.019531 C 22.65625 15.019531 22.652344 15.019531 22.644531 15.019531 C 22.652344 15.015625 22.660156 15.011719 22.664062 15.007812 Z M 9 9.734375 C 9.253906 9.46875 9.546875 9.246094 9.882812 9.097656 C 10.207031 8.953125 10.640625 8.835938 10.988281 8.964844 C 10.953125 9.007812 10.914062 9.050781 10.882812 9.097656 C 10.515625 9.585938 10.292969 10.175781 10.160156 10.773438 C 9.902344 11.960938 9.941406 13.296875 10.574219 14.363281 C 10.578125 14.371094 10.585938 14.382812 10.589844 14.390625 C 10.144531 14.082031 9.757812 13.683594 9.460938 13.21875 C 9.0625 12.589844 8.847656 11.847656 8.835938 11.097656 C 8.828125 10.65625 8.890625 10.214844 9.019531 9.792969 C 9.027344 9.765625 9.015625 9.746094 9 9.734375 Z M 18.300781 12.246094 C 18.285156 12.097656 18.261719 11.949219 18.234375 11.796875 C 18.441406 12.066406 18.734375 12.273438 18.972656 12.519531 C 19.3125 12.871094 19.53125 13.34375 19.601562 13.832031 C 19.675781 14.375 19.558594 14.882812 19.3125 15.363281 C 19.214844 15.554688 19.101562 15.742188 19.007812 15.933594 C 19 15.941406 18.992188 15.949219 18.984375 15.957031 C 18.871094 16.132812 18.796875 16.332031 18.6875 16.511719 C 18.582031 16.683594 18.488281 16.867188 18.382812 17.042969 C 18.179688 17.378906 17.925781 17.691406 17.59375 17.902344 C 17.21875 18.136719 16.777344 18.238281 16.347656 18.3125 C 15.964844 18.378906 15.578125 18.40625 15.191406 18.402344 C 15.15625 18.402344 15.125 18.402344 15.09375 18.402344 C 15.078125 18.378906 15.050781 18.359375 15.015625 18.355469 C 14.566406 18.277344 14.296875 17.878906 14.070312 17.511719 C 13.820312 17.109375 13.566406 16.742188 13.15625 16.496094 C 12.433594 16.050781 11.550781 16.007812 10.816406 15.582031 C 10.488281 15.386719 10.195312 15.121094 10.0625 14.753906 C 10.144531 14.816406 10.230469 14.878906 10.316406 14.9375 C 10.917969 15.328125 11.601562 15.5625 12.285156 15.761719 C 12.636719 15.859375 12.992188 15.945312 13.347656 16.03125 C 13.710938 16.113281 14.09375 16.179688 14.46875 16.136719 C 14.964844 16.210938 15.476562 16.207031 15.957031 16.058594 C 16.382812 15.929688 16.773438 15.6875 17.066406 15.347656 C 17.226562 15.160156 17.351562 14.941406 17.433594 14.707031 C 17.433594 14.703125 17.433594 14.699219 17.433594 14.695312 C 17.582031 14.558594 17.71875 14.40625 17.839844 14.242188 C 18.257812 13.664062 18.382812 12.953125 18.300781 12.246094 Z M 18.308594 10.5 C 18.871094 11.039062 19.3125 11.71875 19.480469 12.480469 C 19.34375 12.300781 19.1875 12.140625 19.015625 11.992188 C 18.828125 11.824219 18.621094 11.664062 18.488281 11.445312 C 18.328125 11.175781 18.367188 10.855469 18.320312 10.558594 C 18.316406 10.539062 18.3125 10.519531 18.308594 10.5 Z M 14.382812 18.347656 C 13.148438 18.195312 11.929688 17.6875 11.089844 16.746094 C 10.773438 16.390625 10.519531 15.984375 10.304688 15.558594 C 10.664062 15.867188 11.132812 16.0625 11.566406 16.195312 C 11.996094 16.328125 12.441406 16.433594 12.84375 16.640625 C 13.039062 16.742188 13.226562 16.863281 13.382812 17.023438 C 13.558594 17.203125 13.6875 17.421875 13.820312 17.636719 C 13.976562 17.890625 14.15625 18.15625 14.382812 18.347656 Z M 10.570312 12.71875 C 10.726562 13.527344 11.082031 14.289062 11.648438 14.878906 C 11.863281 15.101562 12.109375 15.296875 12.378906 15.449219 C 12.277344 15.425781 12.175781 15.398438 12.074219 15.371094 C 12.0625 15.351562 12.042969 15.332031 12.011719 15.320312 C 11.066406 14.917969 10.460938 13.9375 10.339844 12.917969 C 10.265625 12.320312 10.320312 11.714844 10.441406 11.125 C 10.46875 10.996094 10.5 10.867188 10.535156 10.738281 C 10.449219 11.398438 10.445312 12.066406 10.570312 12.71875 Z M 14.871094 16.058594 C 15.105469 15.996094 15.335938 15.910156 15.5625 15.8125 C 15.855469 15.6875 16.152344 15.550781 16.433594 15.398438 C 16.703125 15.253906 16.960938 15.089844 17.199219 14.898438 C 17.050781 15.195312 16.824219 15.441406 16.554688 15.632812 C 16.175781 15.898438 15.71875 16.03125 15.265625 16.058594 C 15.132812 16.066406 15.003906 16.066406 14.871094 16.058594 Z M 17.738281 13.691406 C 17.726562 13.710938 17.714844 13.730469 17.707031 13.75 C 17.800781 13.300781 17.84375 12.839844 17.820312 12.382812 C 17.789062 11.804688 17.679688 11.195312 17.378906 10.695312 C 17.304688 10.578125 17.21875 10.464844 17.121094 10.367188 C 17.578125 10.671875 17.777344 11.273438 17.882812 11.792969 C 18.015625 12.421875 18.027344 13.105469 17.738281 13.691406 Z M 17.648438 10.394531 C 17.207031 9.847656 16.476562 9.730469 15.820312 9.816406 C 15.164062 9.902344 14.554688 10.195312 14.027344 10.597656 C 13.484375 11.007812 12.9375 11.488281 12.566406 12.070312 C 12.191406 12.65625 12.058594 13.425781 12.261719 14.097656 C 12.445312 14.71875 12.949219 15.328125 13.542969 15.578125 C 14.234375 15.867188 14.925781 15.4375 15.453125 15.011719 C 15.949219 14.609375 16.457031 14.121094 16.613281 13.46875 C 16.757812 12.855469 16.511719 12.199219 16.074219 11.769531 C 15.585938 11.296875 14.894531 11.132812 14.238281 11.230469 C 14.082031 11.253906 13.929688 11.292969 13.78125 11.34375 C 13.808594 11.3125 13.835938 11.28125 13.863281 11.253906 C 14.269531 10.835938 14.804688 10.492188 15.347656 10.300781 C 15.75 10.160156 16.234375 10.078125 16.664062 10.175781 C 16.667969 10.179688 16.675781 10.1875 16.679688 10.1875 C 17.140625 10.425781 17.398438 10.917969 17.535156 11.40625 C 17.703125 12.003906 17.726562 12.65625 17.648438 13.269531 C 17.613281 13.554688 17.554688 13.835938 17.472656 14.109375 C 17.242188 14.402344 16.949219 14.640625 16.640625 14.84375 C 16.148438 15.164062 15.601562 15.425781 15.050781 15.617188 C 14.726562 15.734375 14.398438 15.800781 14.050781 15.777344 C 13.714844 15.753906 13.378906 15.667969 13.050781 15.597656 C 12.96875 15.582031 12.890625 15.566406 12.808594 15.546875 C 12.800781 15.53125 12.792969 15.519531 12.777344 15.515625 C 12.078125 15.222656 11.523438 14.65625 11.15625 13.984375 C 10.730469 13.210938 10.582031 12.308594 10.613281 11.429688 C 10.632812 10.941406 10.703125 10.460938 10.808594 9.988281 C 10.878906 9.835938 10.964844 9.691406 11.0625 9.558594 C 11.390625 9.121094 11.855469 8.804688 12.359375 8.617188 C 12.394531 8.605469 12.421875 8.585938 12.441406 8.558594 C 12.964844 8.527344 13.488281 8.539062 14.003906 8.625 C 14.640625 8.730469 15.265625 8.90625 15.886719 9.082031 C 16.425781 9.238281 17 9.402344 17.429688 9.796875 C 17.613281 9.960938 17.773438 10.164062 17.855469 10.398438 C 17.910156 10.550781 17.925781 10.707031 17.9375 10.863281 C 17.859375 10.695312 17.761719 10.535156 17.648438 10.394531 Z M 14.0625 14.199219 C 14.046875 14.144531 14.042969 14.113281 14.042969 14.046875 C 14.046875 13.890625 14.074219 13.730469 14.09375 13.574219 C 14.167969 13.820312 14.304688 14.046875 14.496094 14.21875 C 14.460938 14.226562 14.429688 14.238281 14.394531 14.246094 C 14.328125 14.265625 14.261719 14.289062 14.191406 14.296875 C 14.140625 14.304688 14.117188 14.296875 14.097656 14.28125 C 14.074219 14.261719 14.089844 14.277344 14.074219 14.246094 C 14.085938 14.265625 14.0625 14.210938 14.0625 14.199219 Z M 14.304688 13.121094 C 14.304688 13.058594 14.257812 13 14.195312 12.984375 C 14.167969 12.949219 14.113281 12.9375 14.078125 12.976562 C 13.804688 13.261719 13.605469 13.59375 13.570312 14 C 13.539062 14.378906 13.710938 14.777344 14.125 14.808594 C 14.320312 14.828125 14.519531 14.753906 14.703125 14.699219 C 14.886719 14.644531 15.066406 14.589844 15.242188 14.511719 C 15.492188 14.40625 15.726562 14.265625 15.933594 14.089844 C 15.871094 14.164062 15.808594 14.238281 15.742188 14.308594 C 15.53125 14.523438 15.300781 14.71875 15.0625 14.894531 C 14.804688 15.085938 14.523438 15.253906 14.207031 15.328125 C 13.582031 15.46875 13.03125 14.976562 12.75 14.449219 C 12.617188 14.199219 12.523438 13.894531 12.539062 13.605469 C 12.558594 13.304688 12.65625 13.019531 12.796875 12.757812 C 12.949219 12.464844 13.121094 12.1875 13.308594 11.925781 C 13.363281 11.949219 13.425781 11.953125 13.492188 11.917969 C 14.015625 11.621094 14.648438 11.480469 15.234375 11.65625 C 15.25 11.664062 15.269531 11.667969 15.285156 11.675781 C 15.292969 11.695312 15.3125 11.710938 15.332031 11.714844 C 15.695312 11.78125 15.867188 12.171875 15.890625 12.511719 C 15.90625 12.722656 15.878906 12.9375 15.851562 13.144531 C 15.828125 13.328125 15.800781 13.515625 15.730469 13.6875 C 15.59375 13.789062 15.441406 13.871094 15.28125 13.941406 C 15.121094 14.015625 14.953125 14.074219 14.785156 14.128906 C 14.777344 14.105469 14.769531 14.085938 14.75 14.070312 C 14.460938 13.839844 14.296875 13.488281 14.304688 13.121094 Z M 15.925781 12.085938 C 16.097656 12.269531 16.226562 12.488281 16.296875 12.730469 C 16.277344 12.863281 16.253906 12.980469 16.195312 13.105469 C 16.140625 13.226562 16.070312 13.34375 15.984375 13.449219 C 15.964844 13.46875 15.945312 13.492188 15.925781 13.511719 C 15.941406 13.445312 15.957031 13.378906 15.964844 13.308594 C 15.992188 13.128906 16.015625 12.949219 16.027344 12.769531 C 16.039062 12.535156 16.015625 12.296875 15.925781 12.085938 Z M 8.847656 12.144531 C 9.039062 12.84375 9.414062 13.484375 9.921875 13.992188 C 10.171875 14.246094 10.457031 14.464844 10.761719 14.640625 C 10.863281 14.785156 10.980469 14.917969 11.105469 15.039062 C 10.570312 14.800781 10.089844 14.472656 9.679688 14.046875 C 9.679688 14.042969 9.675781 14.039062 9.675781 14.035156 C 9.65625 13.980469 9.621094 13.949219 9.578125 13.933594 C 8.855469 13.121094 8.425781 12.019531 8.566406 10.914062 C 8.613281 10.558594 8.703125 10.214844 8.820312 9.878906 C 8.832031 9.875 8.84375 9.875 8.855469 9.871094 C 8.648438 10.609375 8.648438 11.402344 8.847656 12.144531 Z M 8.914062 13.511719 C 8.941406 13.554688 8.96875 13.59375 8.996094 13.636719 C 9.105469 13.796875 9.222656 13.949219 9.351562 14.09375 C 9.351562 14.105469 9.355469 14.117188 9.359375 14.128906 C 9.691406 15.050781 10.054688 15.980469 10.65625 16.753906 C 11.164062 17.398438 11.820312 17.910156 12.554688 18.253906 C 13.3125 18.605469 14.125 18.785156 14.957031 18.820312 C 15.367188 18.835938 15.78125 18.816406 16.1875 18.761719 C 16.652344 18.695312 17.113281 18.601562 17.542969 18.40625 C 17.925781 18.230469 18.238281 17.953125 18.492188 17.621094 C 18.441406 17.890625 18.394531 18.164062 18.339844 18.429688 C 18.089844 19.03125 17.683594 19.554688 17.203125 19.980469 C 16.695312 20.4375 16.101562 20.808594 15.480469 21.078125 C 15.132812 21.234375 14.757812 21.351562 14.375 21.359375 C 14.183594 21.363281 13.992188 21.335938 13.8125 21.273438 C 13.632812 21.21875 13.464844 21.136719 13.296875 21.058594 C 13.125 20.984375 12.953125 20.914062 12.773438 20.875 C 12.574219 20.832031 12.367188 20.832031 12.164062 20.835938 C 11.964844 20.84375 11.761719 20.863281 11.5625 20.855469 C 11.394531 20.851562 11.226562 20.832031 11.0625 20.800781 C 10.5 20.683594 9.972656 20.414062 9.550781 20.019531 C 9.277344 19.628906 9.082031 19.1875 8.949219 18.714844 C 8.734375 17.945312 8.632812 17.128906 8.59375 16.332031 C 8.550781 15.511719 8.601562 14.6875 8.808594 13.890625 C 8.839844 13.761719 8.878906 13.636719 8.914062 13.511719 Z M 10.753906 20.84375 C 11.097656 20.949219 11.449219 20.988281 11.804688 20.976562 C 12.019531 20.96875 12.230469 20.949219 12.441406 20.957031 C 12.644531 20.964844 12.839844 21.007812 13.03125 21.078125 C 13.390625 21.214844 13.726562 21.414062 14.113281 21.464844 C 14.503906 21.515625 14.894531 21.433594 15.261719 21.304688 C 15.613281 21.179688 15.949219 21.007812 16.269531 20.816406 C 16.566406 20.644531 16.851562 20.449219 17.117188 20.230469 C 17.535156 19.890625 17.90625 19.484375 18.191406 19.023438 C 18.191406 19.023438 18.191406 19.027344 18.1875 19.027344 C 18.019531 19.582031 17.75 20.132812 17.28125 20.484375 C 17.242188 20.515625 17.226562 20.554688 17.222656 20.59375 C 16.648438 20.910156 16.054688 21.1875 15.4375 21.398438 C 14.171875 21.824219 12.8125 21.914062 11.539062 21.46875 C 10.964844 21.265625 10.417969 20.949219 9.976562 20.523438 C 9.949219 20.5 9.929688 20.472656 9.902344 20.445312 C 10.167969 20.617188 10.453125 20.753906 10.753906 20.84375 Z M 18.375 19.425781 C 18.585938 18.851562 18.648438 18.242188 18.773438 17.644531 C 18.820312 17.414062 18.878906 17.1875 18.953125 16.964844 C 18.957031 16.964844 18.960938 16.96875 18.96875 16.96875 C 19.539062 16.929688 20.109375 16.828125 20.65625 16.652344 C 21.144531 16.496094 21.617188 16.269531 22.011719 15.925781 C 22.035156 15.902344 22.058594 15.878906 22.082031 15.859375 C 21.773438 16.355469 21.457031 16.847656 21.136719 17.335938 C 20.917969 17.667969 20.699219 18 20.433594 18.296875 C 20.164062 18.605469 19.84375 18.863281 19.511719 19.101562 C 19.027344 19.449219 18.535156 19.792969 18.027344 20.113281 C 18.171875 19.902344 18.285156 19.667969 18.375 19.425781 Z M 19.902344 16.714844 C 19.601562 16.777344 19.300781 16.820312 18.996094 16.84375 C 19.015625 16.792969 19.03125 16.742188 19.054688 16.691406 C 19.117188 16.542969 19.191406 16.402344 19.273438 16.261719 C 19.285156 16.28125 19.304688 16.296875 19.332031 16.296875 C 19.984375 16.3125 20.632812 16.097656 21.226562 15.832031 C 21.523438 15.699219 21.816406 15.546875 22.089844 15.367188 C 22.191406 15.300781 22.292969 15.230469 22.390625 15.15625 C 22.394531 15.15625 22.394531 15.15625 22.394531 15.15625 C 22.457031 15.128906 22.515625 15.097656 22.570312 15.066406 C 22.566406 15.070312 22.566406 15.074219 22.5625 15.078125 C 22.535156 15.117188 22.511719 15.160156 22.484375 15.199219 C 22.460938 15.195312 22.4375 15.203125 22.421875 15.226562 C 21.882812 16.125 20.871094 16.519531 19.902344 16.714844 Z M 10.039062 7.546875 C 10.210938 7.386719 10.433594 7.265625 10.667969 7.238281 C 10.742188 7.226562 10.773438 7.164062 10.769531 7.109375 C 10.773438 7.109375 10.773438 7.109375 10.777344 7.109375 C 10.792969 7.476562 10.917969 7.84375 11.078125 8.171875 C 11.152344 8.332031 11.242188 8.488281 11.328125 8.640625 C 11.285156 8.675781 11.242188 8.710938 11.199219 8.75 C 10.777344 8.542969 10.257812 8.636719 9.839844 8.8125 C 9.546875 8.933594 9.28125 9.105469 9.039062 9.3125 C 9.089844 9.1875 9.144531 9.066406 9.195312 8.945312 C 9.414062 8.449219 9.636719 7.914062 10.039062 7.546875 Z M 6.019531 10.601562 C 5.949219 10.304688 5.945312 9.984375 6.039062 9.691406 C 6.128906 9.402344 6.34375 9.203125 6.609375 9.082031 C 6.949219 8.933594 7.316406 8.855469 7.660156 8.714844 C 8.03125 8.566406 8.390625 8.390625 8.734375 8.179688 C 9.058594 7.984375 9.363281 7.753906 9.679688 7.546875 C 9.570312 7.675781 9.472656 7.816406 9.386719 7.960938 C 9.222656 8.234375 9.09375 8.523438 8.964844 8.8125 C 8.8125 9.152344 8.664062 9.5 8.542969 9.855469 C 8.320312 10.519531 8.207031 11.21875 8.3125 11.921875 C 8.382812 12.375 8.53125 12.8125 8.746094 13.21875 C 8.742188 13.21875 8.742188 13.222656 8.738281 13.226562 C 8.695312 13.320312 8.65625 13.414062 8.621094 13.507812 C 8.597656 13.46875 8.566406 13.433594 8.527344 13.40625 C 7.507812 12.714844 6.328125 11.894531 6.019531 10.601562 Z M 11.988281 22.859375 C 11.378906 22.921875 10.75 22.960938 10.140625 22.855469 C 9.011719 22.65625 8.03125 22.027344 7.089844 21.386719 C 6.667969 21.101562 6.210938 20.816406 5.917969 20.378906 C 5.605469 19.917969 5.550781 19.355469 5.589844 18.808594 C 5.632812 18.203125 5.800781 17.613281 5.882812 17.011719 C 5.925781 16.683594 5.949219 16.355469 5.917969 16.027344 C 5.890625 15.722656 5.824219 15.417969 5.804688 15.113281 C 5.785156 14.851562 5.796875 14.578125 5.910156 14.335938 C 6.023438 14.097656 6.214844 13.957031 6.472656 13.910156 C 6.773438 13.859375 7.097656 13.898438 7.402344 13.902344 C 7.765625 13.914062 8.125 13.914062 8.488281 13.910156 C 8.328125 14.488281 8.273438 15.101562 8.265625 15.695312 C 8.253906 16.539062 8.347656 17.394531 8.507812 18.222656 C 8.65625 18.992188 8.914062 19.757812 9.390625 20.378906 C 9.792969 20.902344 10.3125 21.316406 10.898438 21.597656 C 11.492188 21.882812 12.128906 22.046875 12.777344 22.105469 C 12.84375 22.179688 12.917969 22.25 12.996094 22.3125 C 13.113281 22.410156 13.242188 22.484375 13.375 22.558594 C 13.433594 22.59375 13.496094 22.628906 13.558594 22.660156 C 13.035156 22.726562 12.515625 22.800781 11.988281 22.859375 Z M 24.070312 18.039062 C 23.925781 18.285156 23.714844 18.480469 23.503906 18.667969 C 23.300781 18.84375 23.089844 19.007812 22.875 19.171875 C 22.4375 19.503906 21.988281 19.832031 21.582031 20.207031 C 21.179688 20.582031 20.828125 21.007812 20.574219 21.5 C 20.445312 21.753906 20.328125 22.011719 20.175781 22.25 C 20.03125 22.480469 19.839844 22.660156 19.605469 22.792969 C 19.132812 23.054688 18.550781 23.152344 18.023438 23.203125 C 17.46875 23.253906 16.90625 23.230469 16.359375 23.144531 C 15.71875 23.046875 15.09375 22.867188 14.488281 22.636719 C 14.195312 22.523438 13.90625 22.390625 13.625 22.246094 C 13.550781 22.210938 13.476562 22.167969 13.402344 22.128906 C 13.894531 22.121094 14.390625 22.054688 14.871094 21.933594 C 16.441406 21.539062 17.84375 20.652344 19.167969 19.730469 C 19.503906 19.496094 19.847656 19.261719 20.164062 18.996094 C 20.484375 18.726562 20.75 18.410156 20.988281 18.058594 C 21.230469 17.703125 21.445312 17.324219 21.667969 16.953125 C 21.90625 16.558594 22.144531 16.164062 22.398438 15.777344 C 22.515625 15.601562 22.628906 15.421875 22.746094 15.242188 C 23.207031 15.59375 23.683594 15.96875 23.984375 16.480469 C 24.257812 16.949219 24.355469 17.550781 24.070312 18.039062 Z M 24.070312 18.039062 " fill-opacity="1" fill-rule="nonzero"/></g></svg>